<?xml version="1.0" encoding="UTF-8" standalone="no"?>
<svg
   enable-background="new 0 0 38.1 38.1"
   version="1.1"
   viewBox="0 0 38.1 38.1"
   id="svg2"
   sodipodi:docname="ModIcon.svg"
   inkscape:version="1.4.2 (f4327f4, 2025-05-13)"
   inkscape:export-filename="ModIcon.png"
   inkscape:export-xdpi="96"
   inkscape:export-ydpi="96"
   xmlns:inkscape="http://www.inkscape.org/namespaces/inkscape"
   xmlns:sodipodi="http://sodipodi.sourceforge.net/DTD/sodipodi-0.dtd"
   xmlns="http://www.w3.org/2000/svg"
   xmlns:svg="http://www.w3.org/2000/svg">
  <defs
     id="defs2">
    <marker
       style="overflow:visible"
       id="Triangle-4-1"
       refX="0"
       refY="0"
       orient="auto-start-reverse"
       inkscape:stockid="Triangle arrow"
       markerWidth="1"
       markerHeight="1"
       viewBox="0 0 1 1"
       inkscape:isstock="true"
       inkscape:collect="always"
       preserveAspectRatio="xMidYMid">
      <path
         transform="scale(0.5)"
         style="fill:context-stroke;fill-rule:evenodd;stroke:context-stroke;stroke-width:1pt"
         d="M 5.77,0 -2.88,5 V -5 Z"
         id="path135-8-7" />
    </marker>
    <marker
       style="overflow:visible"
       id="Triangle-4"
       refX="0"
       refY="0"
       orient="auto-start-reverse"
       inkscape:stockid="Triangle arrow"
       markerWidth="1"
       markerHeight="1"
       viewBox="0 0 1 1"
       inkscape:isstock="true"
       inkscape:collect="always"
       preserveAspectRatio="xMidYMid">
      <path
         transform="scale(0.5)"
         style="fill:context-stroke;fill-rule:evenodd;stroke:context-stroke;stroke-width:1pt"
         d="M 5.77,0 -2.88,5 V -5 Z"
         id="path135-8" />
    </marker>
    <marker
       style="overflow:visible"
       id="Triangle"
       refX="0"
       refY="0"
       orient="auto-start-reverse"
       inkscape:stockid="Triangle arrow"
       markerWidth="1"
       markerHeight="1"
       viewBox="0 0 1 1"
       inkscape:isstock="true"
       inkscape:collect="always"
       preserveAspectRatio="xMidYMid">
      <path
         transform="scale(0.5)"
         style="fill:context-stroke;fill-rule:evenodd;stroke:context-stroke;stroke-width:1pt"
         d="M 5.77,0 -2.88,5 V -5 Z"
         id="path135" />
    </marker>
  </defs>
  <sodipodi:namedview
     id="namedview2"
     pagecolor="#ffffff"
     bordercolor="#000000"
     borderopacity="0.25"
     inkscape:showpageshadow="2"
     inkscape:pageopacity="0.0"
     inkscape:pagecheckerboard="0"
     inkscape:deskcolor="#d1d1d1"
     inkscape:zoom="11.107701"
     inkscape:cx="8.2825416"
     inkscape:cy="41.097612"
     inkscape:window-width="2560"
     inkscape:window-height="1377"
     inkscape:window-x="-8"
     inkscape:window-y="-8"
     inkscape:window-maximized="1"
     inkscape:current-layer="svg2" />
  <style
     type="text/css"
     id="style1">.st0{fill:#00A5CB;} .st1{fill:#0190B0;} .st2{clip-path:url(#SVGID_2_);} .st3{fill:#DCDBDB;} .st4{fill:#FFFFFF;} .st5{fill:#F2F2F2;} .st6{clip-path:url(#SVGID_4_);} .st7{fill:none;} .st8{fill:none;stroke:#FFFFFF;stroke-miterlimit:10;} .st9{clip-path:url(#SVGID_6_);}</style>
  <g
     id="g2"
     transform="matrix(0.8012688,0,0,0.8012688,2.7842426,3.3451308)">
    <circle
       class="st0"
       cx="19.299999"
       cy="19"
       r="18.799999"
       id="circle1"
       style="fill:#000000;fill-opacity:1" />
    <path
       class="st1"
       d="M 19.2,0.2 C 29.6,0.2 38,8.6 38,19 38,29.4 29.6,37.8 19.2,37.8"
       id="path1"
       style="fill:#000000;fill-opacity:1" />
    <path
       class="st4"
       d="M 23.5,8.1 C 22.7,8 21.9,8.1 21,8.5 20.4,8.8 19.8,9.3 19.5,10 c -0.3,0.5 -0.3,1.6 -1,1.8 -0.2,0.1 -0.4,-0.4 -0.5,-0.5 -0.9,-1.5 -1.4,-3.4 -2,-5 -0.3,-1 -0.6,-2 -0.8,-3 C 15.1,2.9 15,2.4 15,2 14.9,1.3 14.6,1.4 13.9,1.6 c -0.6,0.2 -1.8,0.5 -2.2,0.9 -0.3,0.3 -0.1,1 0,1.4 0.2,1.1 0.5,2.3 0.9,3.3 0.5,1.5 1.2,2.9 1.6,4.3 0.8,2.6 3.7,5.1 2,8 -1,1.7 -2.8,3 -4.7,2.7 C 9.7,22 8,20.7 6.2,21.4 4.8,21.9 4,23.3 3.8,24.7 3.6,25.6 3.6,26.5 3.7,27.4 v 1.2 c 0.1,0.7 0.8,1.6 1.3,2.1 0.4,0.4 1.5,1.6 2.2,1.5 0.1,-1.3 0,-2.6 0.1,-3.8 0,-0.6 -0.1,-1.3 0.1,-1.9 0,-0.1 0.1,-0.3 0.2,-0.4 0.1,-0.2 0.4,-0.2 0.6,-0.1 1.1,0.4 2.3,1.6 3.3,2.3 3.1,2.6 7.2,2.1 10.2,-0.2 1.2,-1 2.4,-2.1 3.4,-3.4 2.1,-2.6 3.7,-6.2 3.7,-9.7 0,-2.7 -2.4,-6.4 -5.3,-6.9 z M 19.3,25 c -0.6,0 -1,-0.5 -1,-1 0,-0.6 0.5,-1 1,-1 0.6,0 1,0.5 1,1 0,0.5 -0.5,1 -1,1 z M 21,20.3 c -0.4,0 -0.7,-0.3 -0.7,-0.7 0,-0.4 0.3,-0.7 0.7,-0.7 0.4,0 0.7,0.3 0.7,0.7 0,0.4 -0.3,0.7 -0.7,0.7 z m 4.1,-1.4 c -0.3,0 -0.6,-0.3 -0.6,-0.6 0,-0.3 0.3,-0.6 0.6,-0.6 0.3,0 0.6,0.3 0.6,0.6 0,0.3 -0.3,0.6 -0.6,0.6 z"
       id="path2" />
  </g>
  <path
     style="fill:#171717;fill-opacity:1;stroke:#00ff05;stroke-width:1.56118;stroke-linecap:round;stroke-linejoin:round;stroke-dasharray:none;stroke-dashoffset:1.13386;stroke-opacity:1;marker-start:url(#Triangle)"
     d="M 30.665625,7.0226547 V 23.024054"
     id="path2-9" />
  <path
     style="fill:#171717;fill-opacity:1;stroke:#00ff05;stroke-width:1.56118;stroke-linecap:round;stroke-linejoin:round;stroke-dasharray:none;stroke-dashoffset:1.13386;stroke-opacity:1;marker-start:url(#Triangle-4)"
     d="M 30.665625,10.052991 V 26.054412"
     id="path2-4" />
  <path
     style="fill:#171717;fill-opacity:1;stroke:#00ff05;stroke-width:1.56118;stroke-linecap:round;stroke-linejoin:round;stroke-dasharray:none;stroke-dashoffset:1.13386;stroke-opacity:1;marker-start:url(#Triangle-4-1)"
     d="M 30.665625,13.017563 V 29.018962"
     id="path2-4-5" />
  <path
     style="fill:#171717;fill-opacity:1;stroke:#00ff05;stroke-width:3.71309;stroke-linecap:round;stroke-linejoin:round;stroke-dasharray:none;stroke-dashoffset:1.13386;stroke-opacity:1"
     d="M 30.665625,29.018962 V 14.10967"
     id="path3" />
</svg>
